<svg xmlns="http://www.w3.org/2000/svg" width="32" height="32" viewBox="0 0 32 32">
  <defs>
    <linearGradient id="grad" x1="0" y1="0" x2="1" y2="1">
      <stop offset="0%" stop-color="#fbbf24" />
      <stop offset="100%" stop-color="#f59e0b" />
    </linearGradient>
  </defs>
  <rect width="32" height="32" rx="7" fill="url(#grad)" />
  <g transform="translate(8, 8) scale(0.666)">
    <svg width="24" height="24" viewBox="0 0 24 24" fill="none" stroke="black" stroke-width="2.5" stroke-linecap="round" stroke-linejoin="round">
      <path d="M9.937 15.5A2 2 0 0 0 8.5 14.063l-6.135-1.582a.5.5 0 0 1 0-.962L8.5 9.937A2 2 0 0 0 9.937 8.5l1.582-6.135a.5.5 0 0 1 .962 0L14.063 8.5A2 2 0 0 0 15.5 9.937l6.135 1.582a.5.5 0 0 1 0 .962L15.5 14.063a2 2 0 0 0-1.437 1.437l-1.582 6.135a.5.5 0 0 1-.962 0z"/>
      <path d="M20 3a1 1 0 0 1 1 1"/>
      <path d="M4 20a1 1 0 0 1-1-1"/>
      <path d="M17.5 17.5 19 19"/>
      <path d="M5 5 6.5 6.5"/>
    </svg>
  </g>
</svg>
